<svg xmlns="http://www.w3.org/2000/svg" xmlns:xlink="http://www.w3.org/1999/xlink" viewBox="0 0 1920 1080" width="1920" height="1080" preserveAspectRatio="xMidYMid meet" style="width: 100%; height: 100%; transform: translate3d(0px, 0px, 0px); content-visibility: visible;"><defs><clipPath id="__lottie_element_3"><rect width="1920" height="1080" x="0" y="0"></rect></clipPath><clipPath id="__lottie_element_5"><path d="M0,0 L1920,0 L1920,1080 L0,1080z"></path></clipPath></defs><g clip-path="url(#__lottie_element_3)"><g clip-path="url(#__lottie_element_5)" transform="matrix(1,0,0,1,0,0)" opacity="1" style="display: block;"><g transform="matrix(0.9748294353485107,0.22295202314853668,-0.22295202314853668,0.9748294353485107,215.30908203125,-182.51934814453125)" opacity="1" style="display: block;"><g opacity="1" transform="matrix(1,0,0,1,890.3480224609375,532.2860107421875)"><path fill="rgb(0,112,187)" fill-opacity="1" d=" M338.4049987792969,120.04000091552734 C338.4049987792969,233.88299560546875 233.2030029296875,332.85699462890625 119.36000061035156,332.85699462890625 C119.36000061035156,332.85699462890625 -121.18000030517578,332.85699462890625 -121.18000030517578,332.85699462890625 C-235.06399536132812,332.85699462890625 -338.4049987792969,233.88299560546875 -338.4049987792969,120.04000091552734 C-338.4049987792969,120.04000091552734 -338.4049987792969,-120.50599670410156 -338.4049987792969,-120.50599670410156 C-338.4049987792969,-234.38600158691406 -235.06399536132812,-332.85699462890625 -121.18000030517578,-332.85699462890625 C-121.18000030517578,-332.85699462890625 119.36000061035156,-332.85699462890625 119.36000061035156,-332.85699462890625 C233.2030029296875,-332.85699462890625 338.4049987792969,-234.38600158691406 338.4049987792969,-120.50599670410156 C338.4049987792969,-120.50599670410156 338.4049987792969,120.04000091552734 338.4049987792969,120.04000091552734z"></path></g></g><g transform="matrix(0.9473310708999634,0.32025596499443054,-0.32025596499443054,0.9473310708999634,288.8280029296875,-253.78839111328125)" opacity="0.05771112818318585" style="display: none;"><g opacity="1" transform="matrix(1,0,0,1,890.3480224609375,532.2860107421875)"><path fill="rgb(15,31,42)" fill-opacity="1" d=" M338.4049987792969,120.04000091552734 C338.4049987792969,233.88299560546875 233.2030029296875,332.85699462890625 119.36000061035156,332.85699462890625 C119.36000061035156,332.85699462890625 -121.18000030517578,332.85699462890625 -121.18000030517578,332.85699462890625 C-235.06399536132812,332.85699462890625 -338.4049987792969,233.88299560546875 -338.4049987792969,120.04000091552734 C-338.4049987792969,120.04000091552734 -338.4049987792969,-120.50599670410156 -338.4049987792969,-120.50599670410156 C-338.4049987792969,-234.38600158691406 -235.06399536132812,-332.85699462890625 -121.18000030517578,-332.85699462890625 C-121.18000030517578,-332.85699462890625 119.36000061035156,-332.85699462890625 119.36000061035156,-332.85699462890625 C233.2030029296875,-332.85699462890625 338.4049987792969,-234.38600158691406 338.4049987792969,-120.50599670410156 C338.4049987792969,-120.50599670410156 338.4049987792969,120.04000091552734 338.4049987792969,120.04000091552734z"></path></g></g><g transform="matrix(0.9373106956481934,0,0,0.9373106956481934,135.91888427734375,33.85223388671875)" opacity="1" style="display: block;"><g opacity="1" transform="matrix(1,0,0,1,899.1240234375,537.22900390625)"><path fill="rgb(241,241,241)" fill-opacity="1" d=" M14.003999710083008,185.98899841308594 C1.9199999570846558,186.4149932861328 -13.593000411987305,186.2010040283203 -29.086999893188477,186.26499938964844 C-49.952999114990234,186.36000061035156 -71.13600158691406,187.5760040283203 -91.54299926757812,182.10400390625 C-119.68000030517578,174.56199645996094 -144.67100524902344,161.052001953125 -163.11900329589844,137.89999389648438 C-175.6199951171875,122.21800231933594 -180.6199951171875,103.1520004272461 -183.8300018310547,83.71499633789062 C-188.2050018310547,57.26100158691406 -188.10400390625,30.624000549316406 -186.93899536132812,3.924999952316284 C-186.43299865722656,-7.690000057220459 -186.86700439453125,-19.34600067138672 -186.63400268554688,-30.97800064086914 C-186.19700622558594,-53.305999755859375 -185.9239959716797,-75.7509994506836 -180.74200439453125,-97.55999755859375 C-173.98599243164062,-126.03199768066406 -158.2429962158203,-148.6320037841797 -133.43800354003906,-164.63999938964844 C-117.83200073242188,-174.7169952392578 -101.82099914550781,-183.72900390625 -82.88400268554688,-185.8699951171875 C-67.89099884033203,-187.5760040283203 -52.834999084472656,-187.0800018310547 -37.80400085449219,-186.97500610351562 C-21.525999069213867,-186.86099243164062 -5.22599983215332,-186.7740020751953 11.029999732971191,-186.0570068359375 C36.15999984741211,-184.93499755859375 57.595001220703125,-174.73599243164062 76.91699981689453,-158.94900512695312 C100.85099792480469,-139.39999389648438 114.19200134277344,-114.20800018310547 118.7969970703125,-84.04000091552734 C119.61000061035156,-78.7040023803711 119.4010009765625,-73.21600341796875 119.97799682617188,-67.83100128173828 C121.56500244140625,-53.374000549316406 127.875,-47.64799880981445 142.5469970703125,-46.358001708984375 C151.03700256347656,-45.611000061035156 159.5760040283203,-45.79999923706055 168.0590057373047,-44.6870002746582 C176.99000549316406,-43.50600051879883 183.61300659179688,-39.189998626708984 186.74200439453125,-30.89900016784668 C188.2050018310547,-27.014999389648438 187.8260040283203,-22.33099937438965 187.77999877929688,-18.0049991607666 C187.4550018310547,13.152000427246094 188.05799865722656,44.354000091552734 185.16900634765625,75.4209976196289 C183.29600524902344,95.47200012207031 179.8560028076172,115.3219985961914 167.49899291992188,132.0050048828125 C152.66299438476562,152.03500366210938 135.8489990234375,169.9499969482422 111.1259994506836,178 C98.34300231933594,182.1580047607422 85.14900207519531,183.87399291992188 71.83899688720703,184.88900756835938 C53.73400115966797,186.28500366210938 35.56700134277344,185.9239959716797 14.003999710083008,185.98899841308594z M0.13500000536441803,44.4379997253418 C-21.415000915527344,44.4379997253418 -42.96699905395508,44.48400115966797 -64.5199966430664,44.417999267578125 C-67.5,44.409000396728516 -70.39299774169922,44.79800033569336 -73.25599670410156,45.457000732421875 C-84.71499633789062,48.11199951171875 -91.74500274658203,59.900001525878906 -89.43900299072266,70.48899841308594 C-87.10600280761719,81.20800018310547 -78.54100036621094,88.26399993896484 -66.59600067138672,88.44599914550781 C-57.14400100708008,88.59400177001953 -47.68299865722656,88.48899841308594 -38.21799850463867,88.48899841308594 C-3.6410000324249268,88.48899841308594 30.93199920654297,88.5530014038086 65.50900268554688,88.4530029296875 C81.6780014038086,88.41300201416016 92.21800231933594,75.8759994506836 88.7969970703125,61.08300018310547 C86.49199676513672,51.11899948120117 77.24700164794922,44.50199890136719 65.25399780273438,44.45800018310547 C43.55500030517578,44.40800094604492 21.854999542236328,44.44900131225586 0.13500000536441803,44.4379997253418z M-32.66299819946289,-46.54199981689453 C-21.65999984741211,-46.54199981689453 -10.659000396728516,-46.3849983215332 0.3440000116825104,-46.58300018310547 C13.008000373840332,-46.80799865722656 22.659000396728516,-56.27000045776367 22.659000396728516,-68.08499908447266 C22.636999130249023,-79.90899658203125 12.986000061035156,-89.46299743652344 0.31700000166893005,-89.56900024414062 C-21.68600082397461,-89.76699829101562 -43.6870002746582,-89.677001953125 -65.69100189208984,-89.59600067138672 C-71.08899688720703,-89.58000183105469 -76.10099792480469,-88.08399963378906 -80.3270034790039,-84.52799987792969 C-87.31800079345703,-78.64900207519531 -89.88300323486328,-69.47200012207031 -86.91200256347656,-61.02299880981445 C-83.88300323486328,-52.41999816894531 -76.01100158691406,-46.75299835205078 -66.14600372314453,-46.590999603271484 C-54.983001708984375,-46.39400100708008 -43.823001861572266,-46.54800033569336 -32.66299819946289,-46.54199981689453z"></path></g></g></g></g></svg>